<?xml version="1.0" standalone="no"?>
<!DOCTYPE svg PUBLIC "-//W3C//DTD SVG 20010904//EN"
 "http://www.w3.org/TR/2001/REC-SVG-20010904/DTD/svg10.dtd">
<svg version="1.0" xmlns="http://www.w3.org/2000/svg"
 width="1080.000000pt" height="1080.000000pt" viewBox="0 0 1080.000000 1080.000000"
 preserveAspectRatio="xMidYMid meet">
<metadata>
Created by potrace 1.14, written by Peter Selinger 2001-2017
</metadata>
<g transform="translate(0.000000,1080.000000) scale(0.100000,-0.100000)"
fill="#000000" stroke="none">
<path d="M5028 10791 c-1 -5 -46 -11 -98 -12 -52 -1 -105 -6 -118 -11 -12 -4
-56 -9 -97 -10 -41 -2 -75 -6 -75 -10 0 -5 -17 -8 -39 -8 -21 0 -51 -4 -67
-10 -16 -5 -50 -11 -76 -14 -26 -2 -51 -7 -55 -9 -5 -3 -30 -7 -58 -11 -27 -3
-68 -11 -90 -17 -22 -6 -60 -14 -85 -19 -25 -5 -60 -13 -77 -19 -18 -5 -33 -7
-33 -3 0 4 -4 1 -8 -6 -5 -7 -25 -13 -46 -14 -20 -1 -39 -5 -42 -10 -3 -4 -18
-8 -35 -8 -16 0 -29 -4 -29 -10 0 -5 -10 -10 -22 -10 -20 0 -62 -11 -113 -30
-11 -4 -23 -8 -28 -8 -4 -1 -21 -9 -37 -17 -17 -9 -30 -13 -30 -11 0 3 -28 -5
-62 -18 -35 -13 -69 -21 -75 -19 -7 3 -13 0 -13 -6 0 -6 -9 -11 -19 -11 -11 0
-23 -4 -26 -10 -3 -5 -15 -10 -26 -10 -10 0 -19 -3 -19 -8 0 -6 -43 -24 -85
-35 -5 -2 -26 -10 -45 -19 -19 -9 -50 -22 -67 -29 -18 -8 -33 -17 -33 -21 0
-5 -11 -8 -24 -8 -14 0 -28 -4 -31 -10 -3 -5 -15 -10 -26 -10 -10 0 -19 -4
-19 -10 0 -5 -9 -10 -20 -10 -11 0 -20 -3 -20 -8 0 -4 -15 -13 -32 -21 -82
-35 -124 -56 -136 -68 -7 -7 -24 -16 -38 -19 -13 -3 -24 -10 -24 -15 0 -5 -9
-9 -20 -9 -11 0 -20 -4 -20 -9 0 -5 -11 -12 -24 -15 -14 -3 -31 -12 -38 -19
-7 -6 -26 -19 -43 -27 -16 -8 -32 -17 -35 -20 -10 -10 -65 -41 -82 -47 -10 -3
-18 -9 -18 -14 0 -5 -6 -9 -14 -9 -8 0 -16 -4 -18 -8 -1 -4 -23 -20 -48 -34
-25 -14 -56 -36 -69 -47 -13 -12 -30 -21 -38 -21 -7 0 -13 -5 -13 -11 0 -5
-13 -15 -29 -20 -16 -6 -32 -17 -35 -25 -3 -8 -10 -14 -16 -14 -12 0 -93 -60
-98 -72 -2 -5 -9 -8 -15 -8 -7 0 -18 -9 -25 -20 -7 -11 -19 -20 -27 -20 -8 0
-28 -13 -43 -30 -16 -16 -32 -30 -35 -30 -6 0 -43 -31 -92 -77 -13 -13 -27
-23 -30 -23 -3 0 -13 -8 -24 -17 -10 -10 -49 -45 -86 -78 -79 -70 -115 -107
-115 -117 0 -5 -5 -8 -11 -8 -15 0 -179 -167 -172 -174 4 -3 2 -6 -4 -6 -6 0
-33 -23 -60 -51 -26 -29 -63 -67 -81 -85 -18 -19 -30 -34 -27 -34 3 0 -6 -11
-20 -25 -14 -14 -25 -30 -25 -35 0 -6 -7 -10 -15 -10 -8 0 -14 -4 -12 -9 2 -8
-58 -84 -111 -139 -12 -13 -23 -28 -25 -34 -2 -11 -8 -19 -54 -75 -41 -50 -64
-82 -63 -88 1 -4 -9 -15 -21 -26 -12 -10 -19 -19 -15 -19 4 0 2 -9 -4 -20 -6
-11 -16 -17 -22 -14 -7 4 -8 3 -4 -4 4 -7 2 -12 -4 -12 -6 0 -9 -4 -6 -9 3 -4
-4 -19 -15 -32 -11 -13 -30 -39 -41 -59 -12 -19 -27 -38 -32 -42 -7 -5 -7 -8
-1 -8 6 0 5 -3 -1 -8 -16 -11 -128 -197 -181 -302 -15 -30 -31 -57 -36 -58 -4
-2 -5 -8 -1 -13 3 -5 0 -9 -6 -9 -6 0 -8 -4 -5 -10 3 -5 2 -10 -3 -10 -10 0
-36 -53 -32 -66 1 -4 -2 -10 -7 -13 -8 -6 -83 -154 -83 -164 0 -3 -10 -27 -22
-54 -12 -26 -21 -51 -20 -55 1 -5 -3 -8 -9 -8 -5 0 -8 -4 -4 -9 3 -5 0 -15 -7
-23 -7 -7 -14 -20 -16 -27 -2 -8 -10 -30 -19 -50 -9 -20 -17 -40 -19 -46 -20
-61 -30 -85 -36 -85 -5 0 -8 -8 -8 -17 0 -10 -9 -43 -21 -73 -11 -30 -21 -57
-21 -60 0 -3 -4 -14 -8 -26 -18 -46 -39 -124 -33 -124 3 0 1 -6 -4 -12 -9 -11
-24 -60 -25 -78 0 -3 -4 -13 -10 -23 -5 -10 -11 -27 -14 -38 -2 -10 -6 -28 -9
-39 -3 -11 -7 -28 -9 -38 -2 -9 -9 -37 -16 -62 -7 -25 -14 -56 -16 -70 -1 -14
-6 -36 -9 -50 -4 -14 -14 -56 -21 -95 -15 -73 -21 -100 -24 -100 -1 0 -3 -16
-5 -36 -1 -20 -6 -56 -11 -80 -7 -45 -8 -51 -19 -155 -6 -62 -12 -99 -15 -99
-1 0 -4 -29 -6 -65 -3 -36 -9 -66 -14 -68 -13 -5 -14 -922 -1 -922 5 0 11 -35
14 -77 3 -43 8 -94 11 -113 3 -19 8 -57 11 -85 4 -27 8 -61 11 -75 2 -14 6
-43 8 -65 3 -22 8 -51 11 -65 8 -32 12 -57 19 -100 9 -53 23 -125 26 -125 2 0
6 -18 14 -63 11 -58 33 -145 54 -209 11 -35 18 -63 16 -63 -2 0 3 -18 11 -39
7 -22 11 -42 8 -45 -4 -3 0 -6 7 -6 7 0 11 -3 8 -6 -4 -3 -2 -20 4 -37 5 -18
11 -36 12 -42 2 -5 9 -23 16 -40 7 -16 18 -48 25 -70 7 -22 24 -70 38 -107 14
-36 23 -69 20 -72 -4 -3 -1 -6 5 -6 7 0 12 -9 12 -20 0 -11 5 -20 10 -20 6 0
9 -3 8 -7 -1 -5 6 -25 15 -47 9 -21 17 -42 17 -47 0 -5 4 -17 10 -27 15 -25
33 -76 32 -84 -1 -5 2 -8 8 -8 5 0 10 -5 10 -11 0 -20 73 -169 83 -169 6 0 7
-3 4 -7 -4 -3 0 -15 10 -25 9 -10 13 -18 9 -18 -6 0 57 -124 75 -146 5 -6 6
-14 2 -17 -3 -4 -1 -7 6 -7 7 0 9 -5 6 -10 -3 -6 -1 -10 5 -10 6 0 15 -12 20
-26 6 -14 23 -45 40 -68 16 -24 26 -46 23 -50 -4 -3 -1 -6 5 -6 7 0 12 -7 12
-15 0 -8 3 -15 8 -15 4 0 18 -21 32 -47 13 -27 29 -51 35 -55 6 -5 6 -8 0 -8
-5 0 0 -7 11 -15 12 -8 27 -28 34 -45 7 -16 17 -30 22 -30 5 0 7 -4 4 -8 -3
-5 4 -14 14 -22 10 -8 17 -17 14 -22 -3 -4 0 -8 5 -8 6 0 11 -7 11 -15 0 -8 4
-15 8 -15 5 0 18 -17 29 -37 12 -21 31 -48 43 -60 11 -13 18 -23 15 -23 -4 0
9 -15 28 -34 19 -18 38 -43 42 -55 3 -11 10 -21 14 -21 5 0 20 -17 34 -37 14
-21 42 -55 61 -76 20 -21 36 -40 36 -43 0 -2 20 -26 44 -52 91 -96 126 -137
126 -145 0 -5 5 -5 10 -2 6 3 10 1 10 -5 0 -13 248 -261 310 -310 24 -19 61
-52 81 -72 21 -21 40 -38 43 -38 6 0 50 -37 82 -68 7 -6 17 -12 23 -12 5 0 13
-9 16 -20 4 -11 10 -18 14 -15 5 2 23 -9 42 -26 19 -17 46 -38 61 -47 16 -9
28 -20 28 -24 0 -4 7 -8 16 -8 8 0 12 -5 9 -10 -3 -6 1 -10 9 -10 8 0 30 -12
48 -28 18 -15 56 -43 83 -62 28 -19 52 -38 53 -42 2 -4 10 -8 18 -8 8 0 14 -5
14 -11 0 -5 4 -8 9 -4 6 3 13 0 18 -8 4 -7 19 -18 33 -25 14 -7 39 -21 55 -32
17 -11 48 -29 70 -41 22 -12 42 -24 45 -28 3 -3 19 -13 35 -21 17 -8 32 -17
35 -20 9 -9 45 -30 70 -41 14 -6 32 -15 40 -20 8 -5 29 -16 45 -24 17 -9 37
-19 45 -24 8 -5 51 -27 95 -48 44 -21 82 -41 83 -45 2 -5 13 -8 25 -8 12 0 33
-9 47 -20 14 -11 31 -20 37 -20 7 0 42 -13 78 -30 36 -16 70 -30 75 -30 6 0
10 -4 10 -8 0 -4 12 -9 28 -10 15 -1 29 -7 30 -12 2 -6 15 -10 28 -10 14 0 23
-4 20 -8 -2 -4 7 -9 22 -10 15 -1 29 -7 30 -12 2 -6 15 -10 28 -10 13 0 24 -4
24 -10 0 -5 10 -10 23 -10 13 0 28 -5 35 -12 7 -7 12 -9 12 -5 0 3 12 2 28 -4
15 -6 38 -13 52 -16 14 -2 29 -8 35 -14 5 -5 24 -9 42 -9 18 0 33 -4 33 -9 0
-5 12 -11 28 -14 15 -3 79 -19 142 -37 163 -45 332 -82 440 -96 19 -3 42 -8
50 -10 8 -3 33 -8 55 -10 22 -2 51 -7 64 -10 13 -3 53 -7 90 -10 36 -3 73 -7
81 -10 8 -3 59 -8 115 -11 55 -3 102 -9 103 -14 5 -12 735 -12 747 0 6 6 42
11 80 12 39 1 93 5 120 10 28 4 79 10 115 13 65 5 91 8 185 26 28 5 68 12 90
15 41 5 57 8 225 44 77 17 165 37 177 41 5 1 28 8 73 20 25 7 56 16 70 21 14
4 34 9 45 11 11 2 22 6 25 9 3 4 19 9 35 10 17 2 32 7 35 10 3 4 16 9 30 10
14 2 27 6 30 9 10 10 75 32 93 32 9 -1 17 3 17 9 0 5 13 9 29 9 16 0 31 4 33
9 2 5 12 11 23 13 11 1 26 8 33 15 7 7 19 10 27 7 8 -4 15 -1 15 5 0 6 11 11
24 11 14 0 28 4 31 10 3 5 15 10 26 10 10 0 19 5 19 10 0 6 11 10 25 10 14 0
25 5 25 10 0 6 7 10 15 10 15 0 25 4 73 28 12 7 30 16 40 21 9 5 50 25 89 45
40 20 76 37 80 37 15 0 118 54 137 72 11 9 28 17 38 17 11 0 16 4 13 10 -4 6
5 10 19 10 14 0 26 4 26 8 0 8 39 31 123 75 20 10 37 22 37 26 0 4 16 13 35
21 19 8 35 17 35 22 0 4 7 8 15 8 8 0 15 4 15 9 0 5 15 16 33 25 63 32 96 53
91 58 -2 3 9 11 26 18 16 7 30 16 30 21 0 5 7 9 15 9 8 0 15 4 15 8 0 5 12 15
28 23 15 8 29 16 32 19 3 3 25 21 50 40 25 19 54 43 64 52 11 10 23 18 28 18
7 0 41 28 93 78 13 12 26 22 29 22 5 0 64 51 113 98 13 12 27 22 31 22 4 0 14
9 22 20 8 11 20 20 28 20 7 0 10 4 7 10 -3 5 -2 10 3 10 10 0 329 318 372 370
14 17 40 46 59 65 18 19 30 35 27 35 -4 0 8 15 26 34 18 19 44 49 58 66 14 17
37 45 52 61 16 17 28 34 28 38 0 3 11 19 25 34 14 15 23 27 19 27 -4 0 3 9 16
20 13 11 20 20 15 20 -4 0 3 9 16 20 13 10 20 19 15 20 -4 0 6 17 23 37 47 56
51 62 51 68 0 4 11 21 25 39 14 18 25 38 25 43 0 6 7 14 16 17 8 3 13 10 9 15
-3 5 6 21 19 34 14 14 22 28 19 31 -4 3 -2 6 4 6 6 0 16 14 23 30 7 17 16 30
21 30 5 0 8 3 7 8 -1 4 5 19 15 35 42 67 53 86 84 145 18 35 40 70 48 79 8 8
13 19 10 24 -4 5 -1 9 5 9 6 0 9 4 6 9 -4 5 -2 11 2 13 10 3 82 154 82 169 0
5 5 9 10 9 6 0 10 7 10 16 0 8 7 22 15 30 8 8 12 21 9 29 -4 8 -2 15 4 15 6 0
13 13 17 30 4 16 11 32 16 35 5 4 9 15 9 26 0 10 5 19 10 19 6 0 10 7 10 15 0
8 4 23 9 33 5 9 17 37 27 62 10 25 23 48 29 52 5 4 7 8 3 8 -5 0 1 24 13 53
19 49 34 92 44 127 3 8 19 56 36 105 17 50 31 98 32 108 1 9 5 17 10 17 4 0 6
4 2 9 -3 5 -1 12 4 16 6 3 8 12 4 20 -3 8 -1 15 4 15 5 0 9 10 10 23 1 12 4
33 8 47 4 14 9 37 12 53 3 15 9 30 14 33 5 3 9 20 9 38 0 18 3 36 8 40 4 4 7
11 8 14 0 6 16 120 18 132 1 3 5 11 9 17 4 7 10 29 13 49 2 21 6 49 9 63 2 14
9 53 14 86 6 33 13 74 16 90 4 17 8 48 10 70 2 22 4 40 5 40 1 0 3 16 5 35 2
19 6 64 9 100 3 36 9 108 12 160 3 52 10 97 15 98 12 5 12 559 0 564 -5 2 -12
57 -15 123 -3 66 -8 136 -11 155 -9 67 -15 115 -19 160 -2 25 -7 59 -10 75 -3
17 -7 52 -10 78 -3 27 -8 52 -10 55 -4 7 -14 66 -21 122 -2 14 -8 40 -14 58
-5 17 -7 32 -4 32 3 0 1 6 -4 13 -5 6 -11 30 -12 52 -2 22 -7 43 -13 46 -5 3
-9 9 -8 13 4 12 -23 131 -35 151 -6 11 -11 32 -10 48 0 15 -3 27 -7 27 -4 0
-8 6 -8 14 0 7 -11 49 -25 92 -14 43 -27 89 -29 101 -3 12 -10 32 -17 45 -7
12 -12 25 -12 28 0 3 -3 14 -8 25 -20 52 -25 68 -33 101 -2 12 -14 41 -27 65
-12 24 -21 44 -20 44 1 0 -2 11 -7 25 -6 14 -14 36 -20 50 -5 14 -10 28 -11
32 -1 4 -15 34 -30 65 -41 83 -64 137 -63 146 1 4 -3 7 -8 7 -6 0 -10 9 -10
19 0 11 -5 21 -11 23 -5 2 -11 11 -12 20 -2 9 -8 22 -15 30 -6 8 -9 18 -5 21
3 4 1 7 -6 7 -7 0 -10 4 -7 9 3 5 -1 14 -9 21 -8 7 -15 21 -15 31 0 11 -4 19
-8 19 -4 0 -21 28 -36 63 -16 34 -44 86 -63 115 -18 29 -34 58 -36 65 -1 7 -9
17 -17 24 -8 6 -15 15 -15 20 -1 8 -34 63 -45 73 -3 3 -14 22 -25 43 -11 20
-23 37 -26 37 -4 0 -14 16 -23 35 -9 19 -21 35 -26 35 -6 0 -10 5 -10 10 0 10
-31 59 -55 86 -5 6 -17 22 -25 34 -31 47 -84 115 -94 122 -6 4 -8 8 -4 8 4 0
-3 11 -15 23 -12 13 -33 39 -47 57 -14 19 -31 39 -38 47 -7 7 -11 13 -7 13 3
0 -8 14 -25 30 -17 17 -29 30 -27 30 3 0 -15 21 -39 47 -24 25 -41 50 -38 55
3 5 2 7 -3 6 -5 -2 -30 18 -56 45 -26 26 -46 47 -44 47 6 0 -167 172 -273 270
-56 52 -117 110 -136 128 -19 17 -39 32 -44 32 -6 0 -10 4 -10 8 0 5 -11 15
-25 22 -13 7 -22 17 -19 22 3 4 -1 8 -8 8 -8 0 -32 16 -54 35 -45 41 -47 41
-99 80 -22 16 -48 36 -57 45 -27 24 -41 34 -70 49 -16 8 -28 18 -28 23 0 4 -7
8 -15 8 -8 0 -15 5 -15 10 0 6 -7 10 -15 10 -8 0 -15 5 -15 10 0 6 -6 10 -13
10 -7 0 -19 9 -27 20 -8 11 -20 20 -27 20 -7 0 -21 8 -31 18 -10 9 -34 26 -53
36 -19 11 -57 34 -85 53 -28 18 -56 33 -63 33 -7 0 -9 5 -6 10 4 6 3 9 -2 8
-12 -4 -73 25 -73 34 0 5 -7 8 -16 8 -8 0 -35 14 -59 30 -24 17 -48 30 -54 30
-6 0 -11 5 -11 11 0 5 -4 8 -9 4 -5 -3 -16 2 -24 10 -9 8 -19 15 -24 15 -8 0
-100 45 -163 80 -14 8 -30 15 -37 16 -6 1 -39 16 -71 32 -33 17 -62 29 -65 26
-2 -2 -10 2 -17 11 -7 8 -23 15 -36 15 -13 0 -24 5 -24 10 0 6 -11 10 -25 10
-14 0 -25 5 -25 10 0 6 -7 10 -15 10 -8 0 -24 5 -35 10 -11 6 -29 15 -40 20
-11 6 -29 10 -39 10 -11 0 -23 5 -26 10 -3 6 -17 10 -30 10 -13 0 -27 5 -30
10 -3 6 -17 10 -30 10 -13 0 -27 5 -30 10 -3 6 -15 10 -26 10 -10 0 -19 4 -19
8 0 4 -12 9 -26 10 -15 1 -32 6 -39 12 -6 5 -14 7 -17 4 -3 -2 -21 2 -39 9
-55 23 -104 37 -132 37 -14 0 -29 5 -32 10 -3 6 -16 10 -29 10 -12 0 -26 3
-30 7 -3 4 -17 8 -29 10 -12 1 -38 7 -57 12 -79 21 -221 51 -245 51 -14 0 -25
5 -25 11 0 5 -4 8 -9 5 -5 -3 -33 -1 -62 4 -100 19 -184 31 -264 36 -44 3 -93
9 -110 13 -16 4 -57 9 -90 10 -33 1 -61 6 -63 12 -5 12 -759 12 -764 0z"/>
</g>
</svg>
